<svg aria-hidden="true" style="position: absolute; width: 0; height: 0; overflow: hidden;" version="1.1" xmlns="http://www.w3.org/2000/svg" xmlns:xlink="http://www.w3.org/1999/xlink">
<defs>
<symbol id="icon-heart" viewBox="0 0 32 32">
<path d="M29.732 4.5c-1.512-1.476-3.601-2.214-6.268-2.214-0.738 0-1.491 0.128-2.259 0.384s-1.482 0.601-2.143 1.036c-0.661 0.434-1.229 0.842-1.706 1.223-0.495 0.397-0.937 0.795-1.357 1.214l0-0c-0.42-0.42-0.862-0.817-1.325-1.189l-0.032-0.025c-0.476-0.381-1.045-0.788-1.706-1.223s-1.375-0.78-2.143-1.036c-0.768-0.256-1.521-0.384-2.259-0.384-2.667 0-4.756 0.738-6.268 2.214s-2.268 3.524-2.268 6.143c0 0.798 0.14 1.619 0.42 2.464s0.598 1.566 0.955 2.161c0.357 0.595 0.762 1.175 1.214 1.741s0.783 0.955 0.991 1.169c0.208 0.214 0.372 0.369 0.491 0.465l11.143 10.75c0.214 0.214 0.476 0.322 0.786 0.322s0.572-0.107 0.786-0.322l11.125-10.715c2.726-2.726 4.089-5.404 4.089-8.035 0-2.619-0.756-4.667-2.268-6.142zM26.357 17l-10.357 9.982-10.375-10c-2.226-2.226-3.339-4.339-3.339-6.339 0-0.964 0.128-1.815 0.384-2.553s0.583-1.325 0.982-1.759c0.399-0.435 0.884-0.788 1.455-1.063s1.131-0.458 1.679-0.554c0.548-0.095 1.131-0.143 1.75-0.143s1.286 0.152 2 0.455c0.714 0.304 1.372 0.684 1.973 1.143s1.116 0.887 1.545 1.286c0.428 0.399 0.786 0.765 1.071 1.098 0.214 0.262 0.506 0.393 0.875 0.393s0.661-0.131 0.875-0.393c0.286-0.333 0.643-0.699 1.071-1.098s0.944-0.827 1.544-1.286c0.601-0.458 1.259-0.839 1.974-1.143s1.381-0.455 2-0.455 1.202 0.048 1.75 0.143c0.548 0.095 1.107 0.28 1.679 0.554s1.057 0.628 1.455 1.063c0.399 0.434 0.726 1.021 0.982 1.759s0.384 1.589 0.384 2.553c-0 2-1.119 4.119-3.357 6.357z"></path>
</symbol>
<symbol id="icon-menu" viewBox="0 0 32 32">
<path d="M0 5.76v1.28h32v-1.28zM0 15.36v1.28h32v-1.28zM0 24.96v1.28h32v-1.28z"></path>
</symbol>
<symbol id="icon-lupa" viewBox="0 0 32 32">
<path d="M13.44 1.92c-6.003 0-10.88 4.877-10.88 10.88s4.877 10.88 10.88 10.88c2.374 0 4.57-0.765 6.36-2.060l8.42 8.4 1.8-1.8-8.32-8.34c1.628-1.884 2.62-4.358 2.62-7.063 0-0.006 0-0.011 0-0.017v0.001c0-6.003-4.877-10.88-10.88-10.88zM13.44 3.2c5.31 0 9.6 4.29 9.6 9.6s-4.29 9.6-9.6 9.6-9.6-4.29-9.6-9.6 4.29-9.6 9.6-9.6z"></path>
</symbol>
<symbol id="icon-shoppingbasket" viewBox="0 0 32 32">
<path d="M24.732 32h-17.132c-1.613 0-2.925-1.312-2.925-2.923l-2.427-11.393c-0.917-0.455-1.519-1.382-1.519-2.417 0-1.513 1.231-2.743 2.743-2.743h25.055c1.512 0 2.743 1.23 2.743 2.743 0 0.885-0.427 1.696-1.142 2.206l-2.492 11.789c0.020 1.427-1.292 2.738-2.904 2.738zM3.472 14.322c-0.521 0.001-0.943 0.423-0.944 0.944v0c0 0.41 0.296 0.773 0.722 0.881 0.331 0.087 0.584 0.35 0.655 0.68l0.001 0.006 2.548 12.059c0.020 0.806 0.525 1.309 1.145 1.309h17.132c0.621-0 1.125-0.503 1.126-1.124v-0l2.592-12.356c0.059-0.276 0.237-0.5 0.477-0.621l0.005-0.002c0.333-0.162 0.54-0.483 0.54-0.832-0.001-0.521-0.423-0.943-0.944-0.944h-25.056z"></path>
<path d="M9.909 26.726c-0.001 0.349-0.284 0.632-0.633 0.633h-0.174c-0.349-0.001-0.632-0.284-0.633-0.633v-7.408c0.001-0.349 0.284-0.632 0.633-0.633h0.174c0.349 0.001 0.632 0.284 0.633 0.633v7.408zM14.543 26.726c-0.001 0.349-0.284 0.632-0.633 0.633h-0.174c-0.349-0.001-0.632-0.284-0.633-0.633v-7.408c0.001-0.349 0.284-0.632 0.633-0.633h0.174c0.349 0.001 0.632 0.284 0.633 0.633v7.408zM19.178 26.726c-0.001 0.349-0.284 0.632-0.633 0.633h-0.175c-0.349-0.001-0.632-0.284-0.633-0.633v-7.408c0.001-0.349 0.284-0.632 0.633-0.633h0.175c0.349 0.001 0.632 0.284 0.633 0.633v7.408zM23.812 26.726c-0.001 0.349-0.284 0.632-0.633 0.633h-0.175c-0.349-0.001-0.632-0.284-0.633-0.633v-7.408c0.001-0.349 0.284-0.632 0.633-0.633h0.174c0.349 0.001 0.632 0.284 0.633 0.633v7.408zM7.481 9.307c0.601-4.183 4.188-7.4 8.537-7.4s7.936 3.218 8.537 7.4c0.088 1.428 1.927 1.2 1.927 0-0.612-5.239-5.060-9.307-10.464-9.307s-9.852 4.068-10.464 9.307c-0 1.486 1.95 1.543 1.927 0z"></path>
</symbol>
</defs>
</svg>
